<svg version="1.2" xmlns="http://www.w3.org/2000/svg" viewBox="0 0 855 294" width="855" height="294">
	<title>FORTIS-01</title>
	<style>
		.s0 { fill: #000000 } 
	</style>
	<g>
		<path class="s0" d="m293.6 234.9v-18.5h1.3l8.8 11.9h-0.6l8.9-11.9h1.2v18.5h-1.3v-9.4q-0.1-2.3 0-4.2 0-1.9 0.2-3.8l0.3 0.5-8.5 11.3h-1.1l-8.5-11.3 0.4-0.5q0.1 1.8 0.2 3.7 0 1.9 0 4.4v9.3c0 0-1.3 0-1.3 0z"/>
		<path class="s0" d="m317 234.9l8.4-18.5h1.9l8.4 18.5h-1.5l-6.3-14q-0.4-0.9-0.7-1.5-0.2-0.5-0.4-0.8-0.1-0.3-0.3-0.7-0.1-0.4-0.4-1.2h0.4q-0.3 0.9-0.5 1.3-0.1 0.5-0.3 0.9-0.2 0.3-0.4 0.8-0.2 0.5-0.6 1.4l-6.3 13.8h-1.4zm3.4-5.4l0.5-1.3h11l0.3 1.3z"/>
		<path class="s0" d="m339.5 234.9v-18.5h8.3q2.2 0 4 0.7 1.8 0.7 3.1 1.9 1.3 1.2 2 2.9 0.7 1.7 0.7 3.7 0 2-0.7 3.7-0.7 1.7-2 3-1.3 1.2-3.1 1.9-1.8 0.7-4 0.7c0 0-8.3 0-8.3 0zm1.3-0.9l-0.4-0.4h7.2q1.9 0 3.5-0.6 1.6-0.6 2.7-1.7 1.1-1 1.8-2.5 0.6-1.4 0.6-3.2 0-1.7-0.6-3.1-0.7-1.5-1.8-2.5-1.1-1.1-2.7-1.7-1.6-0.6-3.5-0.6h-7.2l0.4-0.4z"/>
		<path class="s0" d="m362.3 234.9v-18.5h13.4v1.3h-12.1v15.9h12v1.3zm0.7-8.9v-1.3h11.2v1.3z"/>
		<path class="s0" d="m389.3 234.9l-0.1-1.4h4.4v-15.8h-4.4v-1.3h10v1.3h-4.3v15.8h4.3v1.4z"/>
		<path class="s0" d="m405.1 234.9v-18.5h1.4l15.6 17-0.2 0.7q0-0.4-0.1-1.5 0-1.1 0-2.5 0-1.4 0-2.7 0-1.4 0-2.4 0-1 0-1.2v-7.5h1.3v18.6h-1.5l-15.6-17 0.2-0.7q0 0.3 0 1.1 0.1 0.8 0.1 1.9 0 1 0.1 2.1 0 1.2 0 2.1 0 0.9 0 1.4v9.1h-1.3z"/>
		<path class="s0" d="m438 234.9v-18.5h1.3l8.8 11.9h-0.6l8.9-11.9h1.2v18.5h-1.3v-9.4q0-2.3 0-4.2 0-1.9 0.2-3.8l0.3 0.5-8.5 11.3h-1.1l-8.5-11.3 0.4-0.5q0.2 1.8 0.2 3.7 0.1 1.9 0 4.4v9.3c0 0-1.3 0-1.3 0z"/>
		<path class="s0" d="m472.9 235.2q-2.4 0-4.3-0.8-2-0.7-3.4-1.9-1.4-1.3-2.1-3-0.8-1.7-0.8-3.8 0-2 0.8-3.8 0.7-1.7 2.1-2.9 1.4-1.3 3.4-2 1.9-0.8 4.3-0.8 2.3 0 4.3 0.7 1.9 0.8 3.3 2 1.4 1.3 2.2 3 0.8 1.8 0.8 3.8 0 2.1-0.8 3.8-0.8 1.7-2.2 3-1.4 1.2-3.3 1.9-2 0.8-4.3 0.8zm0-1.4q2 0 3.7-0.6 1.7-0.6 2.9-1.7 1.2-1.1 1.9-2.6 0.7-1.4 0.7-3.2 0-1.7-0.7-3.2-0.7-1.5-1.9-2.6-1.2-1.1-2.9-1.7-1.7-0.6-3.7-0.6-2.1 0-3.8 0.6-1.6 0.6-2.9 1.7-1.2 1.1-1.8 2.6-0.7 1.5-0.7 3.2 0 1.8 0.7 3.2 0.6 1.5 1.8 2.6 1.3 1.1 2.9 1.7 1.7 0.6 3.8 0.6z"/>
		<path class="s0" d="m488.1 234.9v-18.5h8.8q1.7 0 3 0.7 1.3 0.7 2.1 2 0.7 1.2 0.7 2.7 0 1.7-0.7 3-0.8 1.2-2.2 1.9-1.3 0.7-3.1 0.7h-7.2v7.5zm1.3-8.8h7.1q1.4 0 2.5-0.6 1-0.5 1.6-1.5 0.6-0.9 0.6-2.1 0-1.2-0.6-2.1-0.6-1-1.7-1.5-1-0.6-2.4-0.6h-7.1zm12.6 8.8l-5.7-7.9 1.1-0.7 6.2 8.6c0 0-1.6 0-1.6 0z"/>
		<path class="s0" d="m517.1 235.2q-2.3 0-4.3-0.8-1.9-0.7-3.3-1.9-1.4-1.3-2.2-3-0.8-1.7-0.8-3.8 0-2 0.8-3.8 0.8-1.7 2.2-2.9 1.4-1.3 3.3-2 2-0.8 4.3-0.8 2.3 0 4.3 0.7 1.9 0.8 3.3 2 1.4 1.3 2.3 3 0.7 1.7 0.7 3.8 0 2.1-0.7 3.8-0.8 1.7-2.3 3-1.4 1.2-3.3 1.9-2 0.8-4.3 0.8zm0-1.4q2 0 3.7-0.6 1.7-0.6 2.9-1.7 1.3-1.1 1.9-2.6 0.7-1.4 0.7-3.2 0-1.7-0.7-3.2-0.6-1.5-1.9-2.6-1.2-1.1-2.9-1.7-1.7-0.6-3.7-0.6-2 0-3.7 0.6-1.7 0.6-2.9 1.7-1.2 1.1-1.9 2.6-0.7 1.5-0.7 3.2 0 1.8 0.7 3.2 0.7 1.5 1.9 2.6 1.2 1.1 2.9 1.7 1.7 0.6 3.7 0.6z"/>
		<path class="s0" d="m541.6 235.2q-2.4 0-4.4-0.7-1.9-0.7-3.4-2-1.4-1.3-2.2-3.1-0.8-1.8-0.8-3.8 0-2 0.7-3.7 0.8-1.7 2.2-3 1.4-1.3 3.3-2 1.9-0.7 4.2-0.7 1.5 0 3 0.4 1.5 0.4 2.7 1.1 1.3 0.8 2.1 1.6l-0.8 1.3q-0.7-0.9-1.8-1.6-1.1-0.7-2.5-1.1-1.4-0.3-2.7-0.4-2 0-3.6 0.6-1.7 0.6-2.9 1.7-1.2 1.1-1.9 2.6-0.6 1.4-0.6 3.2 0 1.8 0.7 3.3 0.6 1.5 1.9 2.6 1.3 1.1 3 1.7 1.7 0.7 3.7 0.7 1.4 0 2.7-0.4 1.3-0.4 2.3-1 1-0.7 1.7-1.4l0.6 1.2q-0.7 0.7-1.9 1.4-1.2 0.6-2.5 1.1-1.4 0.4-2.8 0.4z"/>
		<path class="s0" d="m562.5 235.2q-2.4 0-4.3-0.7-2-0.7-3.5-2-1.4-1.3-2.2-3.1-0.8-1.8-0.8-3.8 0-2 0.8-3.7 0.7-1.7 2.1-3 1.5-1.3 3.4-2 1.9-0.7 4.2-0.7 1.5 0 2.9 0.4 1.5 0.4 2.8 1.1 1.2 0.8 2 1.6l-0.8 1.3q-0.7-0.9-1.8-1.6-1.1-0.7-2.5-1.1-1.3-0.3-2.7-0.4-2 0-3.6 0.6-1.6 0.6-2.9 1.7-1.2 1.1-1.8 2.6-0.7 1.4-0.7 3.2 0 1.8 0.7 3.3 0.7 1.5 1.9 2.6 1.3 1.1 3 1.7 1.7 0.7 3.7 0.7 1.4 0 2.7-0.4 1.3-0.4 2.4-1 1-0.7 1.6-1.4l0.7 1.2q-0.8 0.7-2 1.4-1.1 0.6-2.5 1.1-1.4 0.4-2.8 0.4z"/>
		<path class="s0" d="m583.2 235.2q-2.3 0-4.3-0.8-1.9-0.7-3.3-1.9-1.4-1.3-2.2-3-0.8-1.7-0.8-3.8 0-2 0.8-3.8 0.8-1.7 2.2-2.9 1.4-1.3 3.3-2 2-0.8 4.3-0.8 2.3 0 4.3 0.7 2 0.8 3.4 2 1.4 1.3 2.2 3 0.8 1.7 0.8 3.8 0 2.1-0.8 3.8-0.8 1.7-2.2 3-1.4 1.2-3.4 1.9-2 0.8-4.3 0.8zm0-1.4q2 0 3.7-0.6 1.7-0.6 3-1.7 1.2-1.1 1.9-2.6 0.7-1.4 0.7-3.2 0-1.7-0.7-3.2-0.7-1.5-1.9-2.6-1.3-1.1-3-1.7-1.7-0.6-3.7-0.6-2 0-3.7 0.6-1.7 0.6-2.9 1.7-1.2 1.1-1.9 2.6-0.7 1.5-0.7 3.2 0 1.8 0.7 3.2 0.7 1.5 1.9 2.6 1.2 1.1 2.9 1.7 1.7 0.6 3.7 0.6z"/>
	</g>
	<g>
		<path class="s0" d="m72.1 170.8v-101h24.5v101zm10.3-37.7v-20.5h65.9v20.5zm1.5-41.7v-21.6h70.4v21.6z"/>
		<path class="s0" d="m245.9 172.2q-13.5 0-24.6-3.9-11.1-4-19.2-11.1-8.1-7-12.5-16.6-4.5-9.5-4.5-20.8 0-11.2 4.5-20.7 4.4-9.6 12.6-16.6 8.1-7.1 19.2-11.1 11-4 24.3-3.9 13.3-0.1 24.4 3.9 11.1 4 19.2 11.1 8.1 7 12.6 16.6 4.4 9.5 4.4 20.7 0 11.3-4.4 20.8-4.5 9.5-12.6 16.6-8.1 7.1-19.2 11.1-11.1 3.9-24.2 3.9zm-0.2-23.1q7.8 0 14.4-2.2 6.5-2.2 11.3-6.2 4.8-4 7.4-9.3 2.5-5.4 2.6-11.6-0.1-6.2-2.6-11.5-2.6-5.4-7.4-9.3-4.8-4-11.3-6.2-6.6-2.3-14.4-2.3-7.8 0-14.3 2.3-6.5 2.2-11.3 6.1-4.9 3.9-7.4 9.2-2.5 5.4-2.5 11.7 0 6.2 2.5 11.6 2.5 5.5 7.4 9.4 4.8 3.8 11.3 6.1 6.5 2.2 14.3 2.2z"/>
		<path class="s0" d="m342.3 170.8v-101h54.9q11.5 0 19.8 4 8.2 4 12.8 11.3 4.5 7.2 4.6 16.8-0.1 9.9-5 17.5-4.9 7.7-13.3 12.1-8.5 4.4-18.8 4.4h-31.7v34.9zm23.4-53.7h29q4.1 0 7.5-1.7 3.5-1.8 5.5-4.9 2.1-3.2 2-7.1 0-4.1-2-7-2.1-3-5.7-4.6-3.7-1.6-8.1-1.6h-28.2c0 0 0 26.9 0 26.9zm45.8 53.7l-31.9-45.6 25.5-3.6 34.8 49.2z"/>
		<path class="s0" d="m503.8 170.8v-79.4h-37.3v-21.6h99.9v21.6h-38.1v79.4z"/>
		<path class="s0" d="m600.6 170.8v-21.4h24.3v-58.3h-24.3v-21.3h73.3v21.3h-24.5v58.3h24.5v21.4z"/>
		<path class="s0" d="m760.5 172.2q-11.7 0-21.3-2.2-9.6-2.2-17.3-6.3-7.7-4-14.1-9.4l12.5-18.9q10.4 8.8 21 12.5 10.7 3.7 20.8 3.7 4.5 0 9-1 4.6-0.9 7.7-3.1 3.1-2.3 3.1-6.3 0-2.3-1.5-4-1.4-1.6-4-2.7-2.6-1.1-6.1-1.8-3.6-0.7-7.5-1.3-3.9-0.5-8-1-9.9-1.2-17.4-3.6-7.5-2.5-12.9-6.3-5.4-3.7-8.2-9-2.8-5.2-2.8-12 0-7.5 3.5-13.5 3.6-6 10-10.1 6.5-4.1 15-6.3 8.4-2.2 18.1-2.2 10.4 0 18.7 2 8.3 2.1 14.6 5.5 6.4 3.5 10.4 7.8l-12.7 16.5q-4-3.6-9.2-6-5.2-2.4-11-3.7-5.8-1.3-11.2-1.3-6 0-10.5 1.1-4.5 1.1-7.3 3.1-2.7 2-2.7 5.2 0 2.9 2.2 4.7 2.2 1.9 5.9 3.1 3.7 1.1 8 1.8 4.4 0.8 8.7 1.2 8.4 1.1 16.2 2.9 7.9 1.7 14.1 4.9 6.2 3.2 9.7 8.5 3.6 5.4 3.6 13.9 0 10.6-6.1 18.2-6.2 7.5-16.8 11.4-10.6 4-24.2 4z"/>
	</g>
</svg>